<?xml version="1.0" standalone="no"?>
<!DOCTYPE svg PUBLIC "-//W3C//DTD SVG 20010904//EN"
 "http://www.w3.org/TR/2001/REC-SVG-20010904/DTD/svg10.dtd">
<svg version="1.0" xmlns="http://www.w3.org/2000/svg"
 width="2000.000000pt" height="2000.000000pt" viewBox="0 0 2000.000000 2000.000000"
 preserveAspectRatio="xMidYMid meet">
<metadata>
Created by potrace 1.14, written by Peter Selinger 2001-2017
</metadata>
<g transform="translate(0.000000,2000.000000) scale(0.100000,-0.100000)"
fill="#000000" stroke="none">
<path d="M2837 13115 c-1 -2 -29 -5 -62 -8 -155 -16 -325 -82 -470 -185 -183
-129 -317 -309 -500 -672 -43 -85 -109 -216 -148 -290 -214 -413 -797 -1591
-1002 -2025 -23 -49 -64 -135 -90 -190 -26 -55 -62 -131 -80 -170 -17 -38 -45
-97 -60 -130 -15 -33 -50 -107 -76 -163 -27 -57 -49 -106 -49 -108 0 -2 -19
-43 -41 -91 -74 -159 -177 -407 -197 -478 -21 -71 -35 -135 -51 -235 -16 -94
-6 -343 17 -446 87 -379 323 -697 648 -876 285 -157 561 -204 879 -152 414 68
805 304 1233 745 l103 106 147 -146 c157 -155 175 -172 292 -267 160 -129 345
-247 493 -314 108 -49 274 -101 361 -114 21 -4 41 -8 45 -10 12 -8 157 -20
236 -20 218 1 397 44 600 146 242 122 460 344 583 593 119 243 173 553 137
792 -31 199 -112 409 -364 936 -39 82 -71 150 -71 152 0 2 -23 52 -51 112 -28
59 -68 144 -89 188 -73 157 -185 391 -376 785 -105 219 -526 1059 -641 1280
-44 85 -130 253 -191 372 -162 317 -236 431 -371 571 -156 163 -355 267 -580
302 -41 7 -208 14 -214 10z m172 -420 c137 -16 285 -95 387 -208 105 -117 153
-205 598 -1092 368 -734 636 -1281 841 -1720 18 -38 65 -137 104 -219 39 -81
71 -149 71 -151 0 -2 25 -55 55 -119 30 -63 55 -117 55 -120 0 -2 15 -37 34
-78 164 -356 189 -418 215 -530 42 -179 45 -294 10 -463 -57 -276 -266 -535
-523 -649 -137 -61 -231 -80 -386 -80 -193 -1 -346 36 -522 125 -62 31 -229
132 -258 155 -8 7 -52 43 -98 79 -45 36 -118 99 -162 141 -75 70 -101 95 -222
221 l-48 49 38 46 c118 145 250 331 344 482 207 332 342 656 393 941 21 116
26 367 10 462 -90 513 -536 863 -1080 847 -49 -1 -106 -5 -125 -9 -80 -13
-146 -28 -161 -36 -9 -4 -28 -10 -44 -13 -50 -9 -210 -94 -291 -154 -340 -253
-481 -683 -373 -1139 11 -48 22 -95 24 -104 2 -9 15 -52 29 -96 104 -332 321
-724 600 -1086 50 -65 95 -124 100 -131 13 -19 -15 -52 -172 -207 -219 -217
-388 -344 -597 -449 -272 -138 -534 -169 -790 -95 -161 47 -274 115 -400 240
-176 175 -270 412 -266 670 1 74 7 117 26 211 9 42 61 195 80 238 13 28 41 92
63 141 51 116 85 188 166 359 36 76 66 140 66 142 0 2 26 58 59 126 32 68 68
143 79 168 11 25 66 139 121 254 56 115 101 210 101 211 0 14 620 1262 776
1563 42 81 110 212 152 292 225 436 272 513 367 605 106 103 233 164 380 183
60 8 73 8 174 -3z m16 -2270 c17 -3 35 -5 40 -6 24 -3 147 -51 191 -76 68 -37
183 -156 221 -228 60 -115 77 -193 77 -355 0 -125 -4 -161 -28 -258 -43 -175
-128 -379 -238 -571 -26 -46 -48 -85 -48 -87 0 -1 -33 -51 -72 -111 -40 -59
-77 -115 -83 -124 -49 -76 -178 -249 -185 -248 -15 1 -192 245 -288 396 -168
264 -273 490 -333 718 -26 100 -32 142 -35 255 -5 239 45 383 181 515 99 96
233 164 360 180 28 4 51 8 53 10 4 4 154 -4 187 -10z"/>
<path d="M10070 11948 c-128 -19 -242 -104 -302 -225 -31 -63 -33 -73 -33
-172 0 -99 2 -111 32 -173 133 -280 507 -317 694 -68 54 73 74 138 74 245 0
77 -4 99 -28 150 -37 79 -68 117 -130 164 -91 67 -199 94 -307 79z"/>
<path d="M12469 11943 c-1 -5 -2 -788 -3 -1740 l-1 -1733 30 -1 c16 0 138 0
270 0 l240 1 28 30 c23 26 27 39 27 91 l0 60 58 -48 c75 -64 106 -84 172 -115
272 -128 644 -105 950 59 325 173 536 464 611 841 29 147 31 361 5 497 -4 17
-9 46 -12 65 -15 87 -80 251 -142 355 -164 276 -464 490 -765 546 -29 5 -63
12 -77 15 -14 3 -83 7 -155 9 -242 6 -440 -60 -588 -195 -22 -19 -42 -34 -45
-32 -4 1 -8 289 -8 640 -1 350 -2 642 -3 649 -1 9 -75 12 -296 13 -162 0 -296
-3 -296 -7z m1322 -1648 c112 -29 235 -100 316 -184 62 -64 131 -193 148 -278
24 -116 26 -252 5 -348 -67 -309 -331 -507 -680 -508 -121 -1 -200 17 -296 65
-74 38 -161 108 -195 157 l-24 34 0 420 0 419 50 49 c187 182 415 241 676 174z"/>
<path d="M17590 10210 l0 -1740 185 -1 c371 -2 348 -3 379 26 23 21 26 32 26
90 0 36 2 65 5 65 2 0 19 -15 37 -33 85 -84 243 -165 381 -193 90 -19 269 -21
372 -5 101 16 234 54 303 86 29 14 54 25 57 25 2 0 32 17 67 37 194 112 359
287 460 486 166 330 181 750 38 1097 -159 386 -533 672 -940 718 -97 11 -287
7 -355 -7 -135 -29 -279 -101 -374 -186 -24 -22 -41 -31 -41 -24 0 8 0 303 0
656 l0 642 -300 0 -300 1 0 -1740z m1301 90 c237 -57 398 -201 475 -425 36
-106 42 -289 13 -405 -40 -160 -129 -288 -259 -375 -68 -45 -174 -91 -233
-100 -18 -3 -54 -9 -82 -13 -125 -20 -292 5 -400 60 -60 31 -138 92 -179 139
l-36 43 0 426 0 426 48 46 c181 175 407 237 653 178z"/>
<path d="M8095 10869 c-427 -58 -769 -313 -942 -704 -30 -69 -71 -201 -80
-260 -3 -16 -9 -50 -13 -75 -15 -77 -6 -376 14 -460 87 -373 289 -650 597
-819 260 -142 609 -184 864 -104 108 33 234 109 301 180 12 13 23 23 26 23 2
0 4 -30 5 -67 1 -60 4 -70 28 -90 18 -16 39 -23 68 -24 49 0 466 0 485 1 9 0
12 242 12 1173 l0 1174 -270 -1 -270 -1 -26 -27 c-24 -23 -27 -35 -27 -88 0
-69 9 -70 -91 11 -165 133 -422 193 -681 158z m423 -574 c102 -29 199 -84 275
-155 l72 -68 0 -426 0 -426 -38 -45 c-71 -83 -229 -176 -326 -191 -20 -3 -39
-8 -43 -10 -14 -9 -175 -5 -242 6 -180 29 -346 126 -441 259 -141 195 -159
497 -45 729 70 141 200 250 365 307 122 42 314 51 423 20z"/>
<path d="M11843 10869 c-133 -23 -297 -105 -399 -201 l-40 -39 1 48 c1 59 -10
95 -37 120 -18 16 -42 18 -289 19 l-269 1 0 -1178 0 -1179 300 0 300 0 0 824
0 824 61 55 c66 61 170 117 264 143 91 25 308 28 408 5 l77 -18 0 277 0 278
-27 7 c-57 14 -71 16 -183 19 -63 2 -138 0 -167 -5z"/>
<path d="M16128 10860 c-173 -36 -333 -117 -420 -214 -17 -18 -18 -17 -18 38
0 61 -18 109 -47 122 -10 4 -129 8 -265 9 -220 1 -248 0 -249 -14 -5 -74 -3
-2315 2 -2323 5 -8 315 -13 565 -9 l31 1 -2 808 c-1 922 -11 829 95 913 114
92 251 141 390 142 106 0 146 -5 217 -29 133 -45 210 -155 238 -339 5 -27 9
-376 9 -775 l2 -725 300 -3 300 -2 -1 777 c-1 428 -5 807 -9 843 -27 235 -95
389 -229 521 -69 69 -210 169 -257 184 -14 4 -29 11 -35 15 -17 13 -138 49
-205 61 -109 20 -313 19 -412 -1z"/>
<path d="M9842 10811 c-5 -3 -8 -511 -8 -1173 l0 -1168 33 -1 c43 0 470 0 526
0 l42 1 0 1172 -1 1173 -291 1 c-161 1 -296 -2 -301 -5z"/>
</g>
</svg>
